Coordinates
version=1
nRows=31
nColumns=34
inDegrees=no

Units are S.I. units (second, meters, Newtons, ...)
If the header above contains a line with 'inDegrees', this indicates whether rotational values are in degrees (yes) or radians (no).

endheader
time	pelvis_tilt	pelvis_list	pelvis_rotation	pelvis_tx	pelvis_ty	pelvis_tz	hip_flexion_r	hip_adduction_r	hip_rotation_r	knee_angle_r	ankle_angle_r	subtalar_angle_r	mtp_angle_r	hip_flexion_l	hip_adduction_l	hip_rotation_l	knee_angle_l	ankle_angle_l	subtalar_angle_l	mtp_angle_l	lumbar_extension	lumbar_bending	lumbar_rotation	arm_flex_r	arm_add_r	arm_rot_r	elbow_flex_r	pro_sup_r	arm_flex_l	arm_add_l	arm_rot_l	elbow_flex_l	pro_sup_l
0.45	0.113481	-0.121336	-0.0323977	0.410405	0.930284	-0.193591	-0.312263	0.178177	0.0847015	-0.00163367	0.209654	0.0378885	-0.00409909	0.450464	-0.177396	-0.0754605	0.65866	0.164559	-0.0877114	-0.00413173	-0.400933	0.151284	0.145064	0.306957	-0.323857	0.112686	0.971938	2.11174	-0.0537586	-0.145324	-0.17677	0.644003	2.12438
0.46	0.118698	-0.118687	-0.0348706	0.421759	0.929264	-0.193973	-0.334592	0.172903	0.0883422	-0.00408439	0.212718	0.0405832	-0.00409845	0.436002	-0.170002	-0.0757656	0.578494	0.168671	-0.0540238	-0.0041311	-0.406987	0.147348	0.147933	0.325364	-0.325858	0.124078	0.982133	2.11168	-0.061954	-0.144469	-0.188002	0.645749	2.11941
0.47	0.123992	-0.115815	-0.0370631	0.433243	0.928135	-0.194418	-0.356205	0.167312	0.0895161	-0.00516012	0.216903	0.0451989	-0.00409782	0.419523	-0.162036	-0.0735562	0.498021	0.171981	-0.0194137	-0.00413047	-0.412904	0.143258	0.150314	0.342931	-0.32768	0.135348	0.991857	2.11173	-0.0697199	-0.143728	-0.199021	0.647848	2.11301
0.48	0.129267	-0.112689	-0.0390886	0.444893	0.926909	-0.194909	-0.377456	0.161439	0.08869	-0.00562705	0.222052	0.0514357	-0.00409719	0.401587	-0.153657	-0.0685653	0.419316	0.174628	0.0142069	-0.00412985	-0.418541	0.138923	0.152318	0.359485	-0.329319	0.146384	1.00114	2.11172	-0.0769999	-0.143177	-0.209522	0.65006	2.10538
0.49	0.134438	-0.109288	-0.0410634	0.45674	0.925603	-0.195435	-0.398555	0.155278	0.0861144	-0.00599013	0.228065	0.0592154	-0.00409656	0.382811	-0.145047	-0.0608255	0.344677	0.176695	0.0445945	-0.00412922	-0.423774	0.134255	0.154063	0.374834	-0.33076	0.157037	1.01001	2.11149	-0.0837398	-0.14289	-0.219214	0.65211	2.09684
0.5	0.139439	-0.105587	-0.0430993	0.468803	0.924244	-0.195985	-0.419504	0.148765	0.081702	-0.00637403	0.234927	0.068804	-0.00409593	0.363821	-0.136374	-0.0507555	0.276438	0.178191	0.0695039	-0.00412859	-0.428516	0.129173	0.155658	0.388773	-0.331982	0.167135	1.01851	2.1109	-0.0898876	-0.142919	-0.227857	0.65372	2.08773
0.51	0.144235	-0.10155	-0.0452944	0.481093	0.922865	-0.196558	-0.440068	0.141758	0.0749774	-0.00646041	0.242708	0.0808565	-0.0040953	0.345195	-0.127752	-0.0391805	0.21675	0.179047	0.0870744	-0.00412796	-0.432725	0.123597	0.157188	0.401104	-0.332963	0.176491	1.02668	2.10981	-0.095397	-0.143281	-0.235293	0.654637	2.0784
0.52	0.148818	-0.0971239	-0.0477246	0.493603	0.921506	-0.197156	-0.459782	0.134035	0.0651195	-0.00548974	0.251523	0.0963531	-0.00409467	0.327413	-0.119213	-0.0272631	0.16734	0.1791	0.0961855	-0.00412733	-0.436402	0.117453	0.158706	0.411632	-0.333675	0.184915	1.03453	2.10816	-0.100235	-0.143956	-0.241468	0.654665	2.06915
0.53	0.153202	-0.0922394	-0.0504375	0.506321	0.920208	-0.197788	-0.477994	0.125304	0.0511119	-0.00233679	0.261456	0.11641	-0.00409404	0.310808	-0.110696	-0.0163478	0.129296	0.178088	0.0966929	-0.0041267	-0.439582	0.110672	0.160218	0.420179	-0.334095	0.192222	1.04208	2.10594	-0.104389	-0.144884	-0.246431	0.653684	2.06027
0.54	0.157413	-0.0868176	-0.0534476	0.519226	0.919005	-0.198466	-0.493947	0.115235	0.0319981	0.00433481	0.272447	0.141968	-0.00409342	0.295546	-0.102067	-0.0077477	0.102916	0.175649	0.0894803	-0.00412607	-0.442313	0.103205	0.161683	0.426587	-0.3342	0.19825	1.0493	2.10327	-0.10788	-0.145975	-0.250327	0.651663	2.052
0.55	0.161466	-0.080783	-0.0567309	0.532299	0.917919	-0.199205	-0.506903	0.103508	0.00721397	0.0158439	0.284167	0.173397	-0.00409279	0.281636	-0.0931466	-0.00251838	0.0876604	0.171352	0.0763035	-0.00412545	-0.444631	0.0950249	0.163009	0.430723	-0.333965	0.202868	1.05615	2.10036	-0.110758	-0.147129	-0.253372	0.648654	2.04458
0.56	0.165352	-0.0740707	-0.0602168	0.545542	0.916999	-0.200027	-0.516289	0.0898726	-0.0230711	0.0332137	0.295895	0.210095	-0.00409216	0.268968	-0.0837462	-0.00126631	0.0822256	0.164748	0.0594457	-0.00412482	-0.446526	0.0861358	0.164057	0.432484	-0.333361	0.205993	1.06253	2.09754	-0.113109	-0.148249	-0.25582	0.644787	2.03825
0.57	0.169011	-0.0666344	-0.0637819	0.558948	0.916257	-0.200941	-0.521878	0.0742011	-0.057721	0.0569108	0.306456	0.25025	-0.00409153	0.257363	-0.0736829	-0.00401801	0.0847342	0.155448	0.0412347	-0.00412419	-0.447923	0.0765673	0.164641	0.43181	-0.332351	0.207592	1.06833	2.09517	-0.115041	-0.149267	-0.257914	0.64025	2.03321
0.58	0.172364	-0.0584345	-0.0672547	0.572523	0.915689	-0.201956	-0.523815	0.0565014	-0.0947061	0.0867059	0.314297	0.290959	-0.0040909	0.2466	-0.0627738	-0.0101513	0.0929987	0.143189	0.0234764	-0.00412356	-0.448717	0.0663521	0.164536	0.428689	-0.33089	0.207691	1.0734	2.09357	-0.116669	-0.150161	-0.25983	0.635274	2.02954
0.59	0.175312	-0.0494543	-0.0704373	0.586268	0.915284	-0.203073	-0.522479	0.0369268	-0.131467	0.121829	0.317699	0.32869	-0.00409027	0.236488	-0.0508702	-0.0185509	0.104869	0.127971	0.00721019	-0.00412294	-0.448798	0.0555372	0.163512	0.423176	-0.328932	0.206372	1.07758	2.09295	-0.118085	-0.150952	-0.261641	0.630104	2.02718
0.6	0.177737	-0.0397088	-0.0731371	0.600176	0.915022	-0.204295	-0.518251	0.0157411	-0.165523	0.161325	0.315057	0.360043	-0.00408964	0.226955	-0.0378905	-0.0278786	0.11856	0.110194	-0.00728534	-0.00412231	-0.448062	0.0441978	0.161375	0.415402	-0.326448	0.203764	1.08072	2.09337	-0.119337	-0.151696	-0.263306	0.624968	2.02595
0.61	0.179494	-0.0292462	-0.075197	0.614228	0.914886	-0.205622	-0.51133	-0.00674174	-0.194938	0.204384	0.305084	0.382318	-0.00408902	0.218106	-0.0238363	-0.0368538	0.132867	0.0907167	-0.0203128	-0.00412168	-0.446425	0.0324363	0.157995	0.405563	-0.323433	0.200025	1.0827	2.09479	-0.120412	-0.152467	-0.26468	0.620055	2.02567
0.62	0.180414	-0.018138	-0.0765188	0.628383	0.914854	-0.207056	-0.501628	-0.0302218	-0.21855	0.250548	0.286909	0.393793	-0.00408839	0.210225	-0.00879006	-0.044474	0.147234	0.0708074	-0.0324901	-0.00412105	-0.443824	0.0203686	0.153332	0.393917	-0.319912	0.195313	1.08345	2.09708	-0.121236	-0.153351	-0.265552	0.615515	2.02617
0.63	0.180313	-0.0064725	-0.0770745	0.642589	0.914904	-0.208591	-0.488771	-0.054457	-0.235974	0.29975	0.260091	0.393722	-0.00408776	0.203718	0.0070996	-0.0501411	0.161654	0.0519877	-0.0444732	-0.00412043	-0.44022	0.00810379	0.147435	0.380754	-0.315932	0.189772	1.08295	2.10003	-0.121684	-0.154428	-0.265685	0.611461	2.02736
0.64	0.179007	0.00565346	-0.0769108	0.656778	0.915015	-0.210215	-0.472176	-0.0792782	-0.247453	0.352231	0.224609	0.382187	-0.00408713	0.199023	0.0236383	-0.0536886	0.176467	0.0357978	-0.0567399	-0.0041198	-0.435602	-0.00427483	0.140447	0.366382	-0.311555	0.183522	1.08121	2.10344	-0.121599	-0.155779	-0.264864	0.607986	2.02927
0.65	0.176349	0.0181414	-0.0761448	0.67088	0.915167	-0.21191	-0.45118	-0.10457	-0.253639	0.408359	0.180853	0.359874	-0.0040865	0.196495	0.0406047	-0.0553263	0.192096	0.0235437	-0.06947	-0.00411917	-0.429988	-0.0167158	0.132581	0.351105	-0.306848	0.176657	1.0783	2.10711	-0.120811	-0.157473	-0.262931	0.605178	2.03202
0.66	0.172255	0.0308863	-0.0749524	0.684825	0.91534	-0.213644	-0.425196	-0.130224	-0.25536	0.468417	0.129657	0.327863	-0.00408588	0.196305	0.057762	-0.0555324	0.208817	0.0160895	-0.08253	-0.00411855	-0.423437	-0.0291923	0.124109	0.335211	-0.30188	0.169262	1.07429	2.11089	-0.119164	-0.159572	-0.259811	0.603129	2.03578
0.67	0.166726	0.043762	-0.0735494	0.698553	0.915516	-0.215381	-0.393848	-0.156077	-0.253419	0.532416	0.0723654	0.287482	-0.00408525	0.198371	0.0748611	-0.0549237	0.226616	0.0137483	-0.09554	-0.00411792	-0.416064	-0.0416819	0.115336	0.318961	-0.296721	0.161435	1.06923	2.11469	-0.116527	-0.162122	-0.255511	0.601939	2.04075
0.68	0.159874	0.0566113	-0.0721736	0.71202	0.915688	-0.217078	-0.35708	-0.181848	-0.24847	0.599973	0.010906	0.240238	-0.00408462	0.202335	0.0916331	-0.0541315	0.245144	0.0162907	-0.107982	-0.0041173	-0.408055	-0.0541314	0.106575	0.302591	-0.291446	0.153296	1.06318	2.11846	-0.112809	-0.16515	-0.250111	0.601713	2.04702
0.69	0.151931	0.0692305	-0.0710632	0.725197	0.915855	-0.218691	-0.315202	-0.207093	-0.240954	0.670273	-0.052174	0.187814	-0.004084	0.207596	0.107782	-0.0537023	0.263781	0.0230579	-0.119317	-0.00411667	-0.399669	-0.0664237	0.0981243	0.286308	-0.286137	0.145001	1.05615	2.12222	-0.107959	-0.168654	-0.243749	0.602553	2.05455
0.7	0.143243	0.0813554	-0.0704371	0.738073	0.916026	-0.220181	-0.268882	-0.231201	-0.23111	0.742122	-0.113775	0.132092	-0.00408337	0.213374	0.122983	-0.0540358	0.281763	0.0331396	-0.129071	-0.00411605	-0.391237	-0.0783578	0.0902498	0.270295	-0.280893	0.136729	1.04813	2.12603	-0.101966	-0.1726	-0.236588	0.604543	2.0631
0.71	0.134242	0.0926674	-0.0704794	0.750655	0.91622	-0.221518	-0.219074	-0.253423	-0.219037	0.814065	-0.170452	0.0751464	-0.00408274	0.218808	0.136893	-0.0553597	0.298331	0.0455611	-0.136898	-0.00411542	-0.383137	-0.0896469	0.0831694	0.25471	-0.27582	0.128662	1.03908	2.12998	-0.0948573	-0.176917	-0.228794	0.607739	2.07225
0.72	0.125396	0.10282	-0.0713285	0.762961	0.916463	-0.22268	-0.166921	-0.272952	-0.204778	0.884536	-0.218759	0.0191885	-0.00408212	0.22305	0.149176	-0.0577367	0.312843	0.0594364	-0.142597	-0.00411479	-0.375756	-0.0999431	0.0770444	0.239677	-0.271028	0.120964	1.02895	2.13416	-0.0866886	-0.181503	-0.220515	0.61215	2.08142
0.73	0.117159	0.111483	-0.0730698	0.775019	0.916784	-0.223659	-0.113629	-0.289023	-0.188416	0.952006	-0.255693	-0.033569	-0.00408149	0.225352	0.159549	-0.0610923	0.324849	0.0740574	-0.146118	-0.00411417	-0.369442	-0.108886	0.0719742	0.22528	-0.266625	0.113751	1.01768	2.13868	-0.0775435	-0.186232	-0.211873	0.617738	2.09
0.74	0.109916	0.118398	-0.0757309	0.78686	0.917212	-0.224458	-0.0603615	-0.30103	-0.170157	1.0151	-0.279134	-0.0810975	-0.00408086	0.225121	0.16783	-0.0652532	0.334099	0.0889166	-0.147539	-0.00411354	-0.364463	-0.116164	0.0679938	0.211546	-0.262704	0.107087	1.00528	2.14361	-0.0675279	-0.190977	-0.202965	0.624418	2.09742
0.75	0.103939	0.123427	-0.0792787	0.79851	0.917753	-0.225092	-0.00814444	-0.308622	-0.150368	1.0727	-0.288178	-0.121754	-0.00408024	0.221956	0.173978	-0.069986	0.340505	0.103677	-0.147043	-0.00411292	-0.360972	-0.121569	0.0650722	0.198437	-0.259345	0.100982	0.991754	2.14896	-0.0567648	-0.195616	-0.193873	0.632071	2.10327
